/* XPM */
static char *result[] = {
/* columns rows colors chars-per-pixel */
"32 32 64 1 ",
"  c #131018",
". c #121118",
"X c #131118",
"o c #131019",
"O c #121119",
"+ c #131119",
"@ c #2A181E",
"# c #2A191E",
"$ c #2B191E",
"% c #2A181F",
"& c #2A191F",
"* c #2B191F",
"= c #201E30",
"- c #211E30",
"; c #201F30",
": c #211F30",
"> c #211E31",
", c #211F31",
"< c #563A2E",
"1 c #573A2E",
"2 c #563B2E",
"3 c #563A2F",
"4 c #573A2F",
"5 c #573B2F",
"6 c #066029",
"7 c #076029",
"8 c #725E3A",
"9 c #735E3A",
"0 c #725F3A",
"q c #725E3B",
"w c #735E3B",
"e c #9C1B4C",
"r c #9C1A4D",
"t c #9C1B4D",
"y c #9D1B4D",
"u c #CC3048",
"i c #CC3148",
"p c #CC3049",
"a c #E44A4A",
"s c #E54A4A",
"d c #28860E",
"f c #28860F",
"g c #29860F",
"h c #28870F",
"j c #29870F",
"k c #72A01C",
"l c #72A11C",
"z c #73A11C",
"x c #72A01D",
"c c #73A01D",
"v c #72A11D",
"b c #73A11D",
"n c #908448",
"m c #918548",
"M c #908449",
"N c #908549",
"B c #918549",
"V c #A4CC42",
"C c #A5CC42",
"Z c #A4CD42",
"A c #A5CD42",
"S c #A4CC43",
"D c #A5CC43",
"F c white",
/* pixels */
"+++8<&++++&&&&<8++o+<9&#+++&&&<<",
"O++<<&++++&$&<<<++++88&&o+O&&#1*",
"+o+4<&++++O&&<<9+++Xn8&&+++&&&<&",
"+++w3&+++++&&<<8+O++M9&&++X+&*<&",
"++o8<::>+++:;::=:++o::;:++X+&&&&",
"+OX8,aaa:+:vlvvvv:O:vvvv:&++%&&3",
"+++N=uuur::::::::;-::::::%O+&&<<",
"+o+N0::t:tusaauauuuusussa:++#&<8",
"+++N:ut;;::tttuyuuuututt;:X+&&<q",
"+++N:au,reuupuuuuipupuipu:+++*<q",
"+++N;au::::,:,::::,:::::,,+&+&#8",
"++.8:a::fffg7FFFF7f7FFFF7f:#&&%8",
"+++N<::dvvkvh7776fvf7777fv:&&&&<",
"+++92&:vvvvvlllvvvvvvbvvxv:&%*<8",
"+++<1&:vlvvv777777777767vv;*&&<8",
"+++2<&;vvxvhlvvlvvvvvcvvfv:+&&<8",
"+++<<&:vvvvvvvvvhffffvvvvv:+&&2q",
"+o+28<+:fxvvvvvvbzvvvvvvf:o+&*&<",
"+++q8<&#:ffvvxllxvlvvvff:++++&&<",
"+++N82&&+::vblbvblvvvv-:+&+++&2<",
"+++N9<&+++:vvvVCVVCSVv:#O&O+o&<3",
"+++88<@++:vvvVVZVVVZVAv:&&o+&&<8",
"+++<q%&+=vvvvVVVSVVVVVx::&++&&18",
"oX+88<&:fvvvvVVVVSVVDVv:f:++%&<8",
"+++N82&:fvd:vVVSCSCVVVv:j:++*&&<",
"+o+m8<&:dg:vvvVVVVVVVvvv::+O+&&<",
"+++8<<&&:;fvvk:::::::vvv:++++%&<",
"+++10<&++:fvvv,<Xo+:fvvf:+X&+&&8",
"+++801&++=fvb:&<+X+:fff:o++&&&&8",
"X++B9<&++:fvj:<8++++:::%+++&&@&8",
"+++N8&#++:ff:&38+++ *35&+++&#&<8",
"+++B<%&++X,:&&<8+OX+<1<*+++&&&<<"
};
