/* XPM */
static char *result[] = {
/* columns rows colors chars-per-pixel */
"32 32 81 1 ",
"  c #131018",
". c #121118",
"X c #131118",
"o c #121019",
"O c #131019",
"+ c #121119",
"@ c #131119",
"# c #2A181E",
"$ c #2A191E",
"% c #2A181F",
"& c #2B181F",
"* c #2A191F",
"= c #2B191F",
"- c #550236",
"; c #550336",
": c #550337",
"> c #6D1E3A",
", c #6C1E3B",
"< c #6D1E3B",
"1 c #6D1F3B",
"2 c #563A2E",
"3 c #573A2E",
"4 c #563B2E",
"5 c #573B2E",
"6 c #563A2F",
"7 c #725E3A",
"8 c #735E3A",
"9 c #725F3A",
"0 c #725E3B",
"q c #725F3B",
"w c #840000",
"e c #840001",
"r c #BE3835",
"t c #BE3935",
"y c #CD1910",
"u c #F1342A",
"i c #F0342B",
"p c #F1342B",
"a c #A23C60",
"s c #A33C60",
"d c #A23C61",
"f c #A33C61",
"g c #A33D61",
"h c #D75552",
"j c #D75553",
"k c #F44942",
"l c #F54942",
"z c #D36866",
"x c #D36867",
"c c #F16962",
"v c #F96C66",
"b c #E87271",
"n c #E97271",
"m c #E87371",
"M c #F57E7B",
"N c #908548",
"B c #908449",
"V c #908549",
"C c #918549",
"Z c #FFA076",
"A c #EC839F",
"S c #ED839F",
"D c #F89BB4",
"F c #F99BB4",
"G c #FFACC2",
"H c #FFACC3",
"J c #FDCCDE",
"K c #FCCDDE",
"L c #FDCDDE",
"P c #FCCDDF",
"I c #FCD9E4",
"U c #FDD9E4",
"Y c #FDD9E5",
"T c #FCF0F4",
"R c #FDF0F4",
"E c #FDF1F4",
"W c #FDF0F5",
"Q c #FFFFFE",
"! c #FFFEFF",
"~ c #FEFFFF",
"^ c white",
/* pixels */
"@@@72*@@O@**$*28@@X@47$*O@@***32",
"O@@22%X@X@***262@@X@77**@@@$*=2*",
"@@@22%@@@@@=*427@@+@V7**@@@*&*2*",
"@@@72%@@@@@%*24q@@O@V7**@O@@**2*",
"@@@72*@@@@@**227+X@@B7=%@@@@****",
"@@@96*X@@@+**2-;;:@@72**X*@@*$%2",
"@@@N2*@@@*<><:ykly;<<13=**@@**62",
"@@@V9$@@<<LR;ykvlly;^L,*$*@@**47",
"@ @V7*@<J^^^;pllZklw^^L>**+@**27",
"@@+V7*<^^^YYepppllpe^^^1**@@@*27",
"@@@V0*<R!Y^^TwypuicwQYLf**@*O**8",
"@@@77*<KR^RYYRLwweeYY^^d**@%***7",
"@@@V2*O<RRY^^^^^^YI^^^^s@@@*=*=6",
"@@@72*@<LYRRR^^RY^^~^^Rf+@O***27",
"@@@26*@sLLLWRRY^^^~^YR^s@@@***27",
"@@@42=OfLLtzPURRE^QY^^^f@@@@%*67",
"@@@24*+*dRFHMxLRRRY!^^Rg@+@@**27",
"@@X272@*fRFHAHmzLYRRRTR<@O@@=**6",
"+@@773**aLrmFHAFmzLRRRL>XX@@@$&2",
"@@@V72*%,LFHjmGHFHmmjjm<@$@@O*23",
".@@V02*@O<LjDGjmFHFFHFS<@*@@@*22",
".X@772*@O@<1jmAHjmHAHFj<*=@@**29",
"@@@27*$@@X@@<<jnHHjbmjF<**@@&*27",
"@@+974=@*XXX**,<jmHFHAh<**@@**37",
"@@OC72**%@@+%*27<<jjmj<2*@@@**$6",
"@@@V72**@@@@%**2@@<<,,22O@@@@**5",
"@@@722#*@@@+=**2@@@@V022@@@XO$$2",
"@@@202*O@@@@***2@O@@7822@O@*O**7",
"@+@772*@@@*@=%*4@@@+792$@+@*$$*7",
"@@@V72*@@@&@**47@@o@632*@@@****7",
"O@@V7*$@@X$X%*37@@@@*62$@O+***27",
"X@@V6%*@@@****27+X@O222*+X@*$*22"
};
